<svg width="978" height="849" viewBox="0 0 978 849" fill="none" xmlns="http://www.w3.org/2000/svg">
<g opacity="0.4">
<path d="M977.595 835.598H1.92749V848.95H977.595V835.598Z" fill="#97C6DB"/>
<path d="M142.989 726.504C142.985 726.518 141.409 731.133 139.741 736.926C138.075 742.73 136.31 749.66 135.935 754.508L138.744 754.715C139.072 750.299 140.801 743.397 142.45 737.686C143.274 734.824 144.077 732.247 144.674 730.387C145.271 728.527 145.657 727.392 145.657 727.392L142.989 726.504Z" fill="#112B46"/>
<path d="M117.814 728.794C117.814 728.794 117.87 729.262 117.956 730.115C118.21 732.672 118.721 738.624 118.721 745.093C118.721 748.119 118.608 751.26 118.31 754.204L121.111 754.48C121.424 751.408 121.537 748.185 121.537 745.09C121.537 736.28 120.614 728.504 120.612 728.472L117.814 728.794Z" fill="#112B46"/>
<path d="M103.856 747.17L103.868 747.181C103.963 747.286 104.543 747.957 105.073 748.907C105.608 749.858 106.073 751.077 106.068 752.25H108.884C108.877 750.26 108.118 748.555 107.403 747.327C106.681 746.099 105.978 745.341 105.932 745.289L103.856 747.17Z" fill="#112B46"/>
<path d="M139.632 729.328C139.632 729.328 125.198 711.267 147.379 673.753C169.56 636.241 215.333 627.21 217.446 632.071C219.558 636.935 194.207 646.311 187.164 675.141C180.122 703.97 179.185 719.947 170.381 728.632C161.58 737.316 149.609 740.79 139.632 729.328Z" fill="url(#paint0_linear_10_26982)"/>
<path d="M109.916 732.966C109.916 732.966 108.331 712.652 71.0576 701.347C33.7845 690.043 -1.53129 711.26 0.0512558 715.679C1.6338 720.098 23.8542 711.199 45.9821 725.811C68.11 740.423 78.4428 750.276 89.4605 750.721C100.478 751.166 110.39 746.341 109.916 732.966Z" fill="url(#paint1_linear_10_26982)"/>
<path d="M132.335 719.659C132.335 719.659 157.2 693.323 128.367 651.177C99.5342 609.032 35.9524 606.093 33.8631 611.936C31.7739 617.776 58.7466 628.8 69.2159 661.946C79.6853 695.091 85.4 711.701 96.3598 721.177C107.317 730.654 121.574 733.804 132.335 719.659Z" fill="url(#paint2_linear_10_26982)"/>
<path d="M145.502 723.756C145.377 723.756 145.25 723.74 145.125 723.704C144.375 723.501 143.936 722.736 144.144 721.994C144.789 719.701 160.252 665.568 188.849 644.892C189.473 644.435 190.355 644.57 190.818 645.191C191.278 645.809 191.141 646.679 190.514 647.133C162.709 667.237 147.015 722.184 146.86 722.738C146.684 723.352 146.12 723.756 145.502 723.756Z" fill="#E6E7E8"/>
<path d="M116.704 716.895C116.088 716.895 115.496 716.46 115.295 715.859C115.216 715.624 115.205 715.478 115.128 714.353C113.84 695.311 105.619 632.149 53.9527 618.815C53.2007 618.621 52.7496 617.861 52.9462 617.119C53.1429 616.377 53.918 615.937 54.6653 616.126C108.153 629.93 116.618 694.66 117.937 714.17C117.972 714.693 117.993 715.033 118.013 715.172C118.259 715.9 117.838 716.592 117.099 716.836C116.968 716.875 116.836 716.895 116.704 716.895Z" fill="#E6E7E8"/>
<path d="M99.3027 742.194C98.6642 742.194 98.0349 741.632 95.978 739.795C72.8113 719.112 50.4844 709.318 29.5921 710.655C28.81 710.712 28.146 710.123 28.0951 709.359C28.0442 708.594 28.6319 707.935 29.4093 707.882C51.0976 706.46 74.1162 716.528 97.8683 737.734C98.6919 738.469 99.5387 739.227 99.8719 739.476C100.256 739.617 100.573 739.923 100.712 740.336C100.957 741.064 100.559 741.849 99.821 742.093C99.6336 742.157 99.4693 742.194 99.3027 742.194Z" fill="#E6E7E8"/>
<path d="M156.934 836.308H84.3079C82.4801 836.308 80.8953 835.064 80.4834 833.309L61.4697 752.253H179.772L160.758 833.309C160.346 835.066 158.762 836.308 156.934 836.308Z" fill="#BEE1F4"/>
<path d="M66.9994 775.832H174.24L179.772 752.253H61.4697L66.9994 775.832Z" fill="#7AABBC"/>
<path d="M62.5895 757.032H178.652L179.772 752.253H61.4697L62.5895 757.032Z" fill="#BEE1F4"/>
<path d="M761.3 90.1857H429.439V268.425H761.3V90.1857Z" fill="#0A2033"/>
<path d="M444.127 99.8267C444.127 101.735 442.558 103.282 440.624 103.282C438.689 103.282 437.121 101.735 437.121 99.8267C437.121 97.9186 438.689 96.3711 440.624 96.3711C442.558 96.3711 444.127 97.9186 444.127 99.8267Z" fill="#F9FBFC"/>
<path d="M458.754 99.8267C458.754 101.735 457.185 103.282 455.251 103.282C453.316 103.282 451.748 101.735 451.748 99.8267C451.748 97.9186 453.316 96.3711 455.251 96.3711C457.185 96.3711 458.754 97.9186 458.754 99.8267Z" fill="#FBD15B"/>
<path d="M472.335 100.19C472.335 102.098 470.766 103.645 468.832 103.645C466.898 103.645 465.329 102.098 465.329 100.19C465.329 98.2814 466.898 96.7339 468.832 96.7339C470.766 96.7339 472.335 98.2814 472.335 100.19Z" fill="#FF8578"/>
<path d="M646.44 126.561H463.855V128.834H646.44V126.561Z" fill="#FBD15B"/>
<path d="M731.556 138.808H472.335V141.082H731.556V138.808Z" fill="#FBD15B"/>
<path d="M687.307 151.056H487.085V153.329H687.307V151.056Z" fill="#FBD15B"/>
<path d="M710.661 163.301H501.589V165.574H710.661V163.301Z" fill="#FBD15B"/>
<path d="M662.481 175.549H521.255V177.822H662.481V175.549Z" fill="#FBD15B"/>
<path d="M546.083 239.085H463.855V241.358H546.083V239.085Z" fill="#FF8578"/>
<path d="M672.557 226.837H472.335V229.11H672.557V226.837Z" fill="#FF8578"/>
<path d="M746.305 214.592H487.085V216.865H746.305V214.592Z" fill="#FF8578"/>
<path d="M642.815 202.344H501.589V204.618H642.815V202.344Z" fill="#FF8578"/>
<path d="M691.978 190.099H521.255V192.372H691.978V190.099Z" fill="#FF8578"/>
<path d="M448.86 124.379H445.911V127.289H448.86V124.379Z" fill="#F9FBFC"/>
<path d="M448.86 231.151H445.91V225.217H448.86V231.151ZM448.86 216.313H445.91V210.378H448.86V216.313ZM448.86 201.475H445.91V195.54H448.86V201.475ZM448.86 186.639H445.91V180.705H448.86V186.639ZM448.86 171.801H445.91V165.867H448.86V171.801ZM448.86 156.965H445.91V151.031H448.86V156.965ZM448.86 142.127H445.91V136.193H448.86V142.127Z" fill="#F9FBFC"/>
<path d="M448.86 240.055H445.91V242.965H448.86V240.055Z" fill="#F9FBFC"/>
<path d="M662.136 469.542H503.259V460.642H656.789L730.692 327.417L738.607 331.69L662.136 469.542Z" fill="#1D262D"/>
<path d="M407.788 186.63C407.788 186.63 405.683 200.461 397.215 213.357C388.747 226.253 369.659 245.197 364.384 246.817C362.256 247.457 354.69 244.079 346.43 239.81C343.723 238.418 340.947 236.912 338.24 235.451C328.731 230.247 320.355 225.226 320.355 225.226L307.746 207.674C312.859 182.225 321.975 163.144 335.995 145.09C349.993 127.013 381.274 137.877 392.657 146.55C404.063 155.224 410.264 168.827 407.788 186.63Z" fill="url(#paint3_radial_10_26982)"/>
<path d="M337.663 188.746C337.291 200.108 344.891 204.392 346.411 206.32C347.931 208.249 337.726 218.744 333.166 214.033C328.605 209.319 337.663 188.746 337.663 188.746Z" fill="#EFA78B"/>
<path d="M623.056 760.846L628.694 787.594L591.477 793.914L582.905 763.295L623.056 760.846Z" fill="#FFC8AF"/>
<path d="M700.043 799.953L702.463 813.339L584.418 834.112L582.021 820.853C582.021 820.853 686.661 801.249 698.054 800.229L700.043 799.953Z" fill="#F9FBFC"/>
<path d="M649.888 784.181C650.087 783.901 650.198 783.593 650.221 783.259C652.59 784.156 655.047 785.081 657.553 786.037L649.205 797.447C648.534 798.346 648.766 799.62 649.675 800.282C650.151 800.608 650.711 800.715 651.237 800.624C651.72 800.54 652.211 800.247 652.507 799.825L661.16 788.032C661.292 787.845 661.384 787.664 661.389 787.457C677.242 793.375 693.866 799.407 698.054 800.229C686.661 801.247 582.021 820.853 582.021 820.853L585.751 790.045C585.91 788.733 587.192 787.868 588.506 788.121C616.212 793.469 625.83 781.575 628.449 776.964C629.005 775.987 630.191 775.583 631.249 775.987C632.47 776.453 634.215 777.12 636.348 777.937L628.1 789.205C627.429 790.104 627.653 791.337 628.563 791.999C629.039 792.325 629.606 792.473 630.131 792.38C630.615 792.295 631.105 792.003 631.436 791.533L640.05 779.747C640.117 779.653 640.182 779.559 640.2 779.432C642.123 780.162 644.268 780.975 646.551 781.847L637.938 793.631C637.267 794.53 637.449 795.772 638.4 796.424C638.835 796.758 639.404 796.906 639.969 796.806C640.453 796.721 640.943 796.429 641.232 795.968L649.888 784.181Z" fill="url(#paint4_linear_10_26982)"/>
<path d="M652.507 799.823C652.208 800.245 651.72 800.537 651.236 800.622C650.711 800.713 650.151 800.608 649.675 800.279C648.763 799.617 648.534 798.344 649.205 797.445L657.553 786.035C658.846 786.505 660.098 786.984 661.391 787.454C661.387 787.66 661.294 787.84 661.162 788.03L652.507 799.823Z" fill="#F9FBFC"/>
<path d="M646.551 781.851C647.715 782.303 648.969 782.782 650.221 783.259C650.198 783.593 650.087 783.898 649.888 784.181L641.235 795.975C640.943 796.436 640.455 796.728 639.971 796.812C639.407 796.913 638.838 796.764 638.403 796.431C637.452 795.776 637.269 794.534 637.94 793.638L646.551 781.851Z" fill="#F9FBFC"/>
<path d="M631.439 791.535C631.108 792.006 630.62 792.295 630.134 792.382C629.608 792.473 629.042 792.327 628.565 792.001C627.653 791.339 627.431 790.107 628.102 789.207L636.35 777.939C637.514 778.391 638.815 778.902 640.203 779.438C640.184 779.564 640.117 779.66 640.052 779.753L631.439 791.535Z" fill="#F9FBFC"/>
<path d="M420.951 588.751C396.771 589.953 364.47 591.642 322.289 593.245C204.274 597.695 228.32 484.966 228.32 484.966L341.102 483.499C341.102 483.499 508.787 481.052 544.109 503.303C579.432 525.555 630.953 760.357 630.953 760.357L574.784 775.832C574.784 775.832 529.267 679.317 502.697 627.915C491.779 606.775 483.885 591.243 483.209 589.552C481.763 585.77 464.485 586.525 420.951 588.751Z" fill="#243C55"/>
<path d="M344.697 483.462C342.381 483.48 341.101 483.499 341.101 483.499L228.319 484.966C228.319 484.966 214.838 548.196 257.643 578.076C300.246 567.91 325.634 525.26 347.996 486.995L344.697 483.462Z" fill="#0A2033"/>
<path d="M502.695 627.915L493.357 767.212L483.207 767.435V761.649H442.965V768.414L431.867 768.681L420.948 588.753C464.482 586.528 481.761 585.772 483.204 589.554C483.882 591.243 491.779 606.775 502.695 627.915Z" fill="#0A2033"/>
<path d="M483.207 767.433V792.8H442.965V768.412L483.207 767.433Z" fill="#FFC8AF"/>
<path d="M483.207 761.647V767.433L442.965 768.412V761.647H483.207Z" fill="#0A2033"/>
<path d="M551.439 817.742V831.341H431.529V817.875C431.529 817.875 538.034 816.702 549.431 817.672L551.439 817.742Z" fill="#F9FBFC"/>
<path d="M504.869 793.528C505.115 793.286 505.279 793.003 505.362 792.679C507.535 793.973 509.791 795.308 512.086 796.682L501.836 806.469C501.017 807.239 501.017 808.533 501.795 809.341C502.204 809.745 502.738 809.948 503.271 809.948C503.763 809.948 504.296 809.745 504.666 809.382L515.283 799.271C515.447 799.109 515.57 798.947 515.612 798.746C530.165 807.318 545.456 816.135 549.433 817.672C538.036 816.702 431.531 817.875 431.531 817.875L440.686 788.192C441.075 786.927 442.493 786.297 443.742 786.774C470.065 796.84 481.649 786.797 485.051 782.712C485.77 781.847 487.01 781.655 487.98 782.235C489.099 782.906 490.698 783.864 492.653 785.037L482.526 794.703C481.707 795.473 481.707 796.726 482.485 797.534C482.894 797.938 483.429 798.182 483.961 798.182C484.454 798.182 484.986 797.979 485.395 797.575L495.971 787.464C496.054 787.384 496.135 787.302 496.177 787.181C497.94 788.233 499.907 789.404 501.998 790.659L491.422 800.77C490.603 801.539 490.562 802.792 491.381 803.6C491.751 804.004 492.283 804.246 492.857 804.246C493.35 804.246 493.882 804.043 494.25 803.639L504.869 793.528Z" fill="url(#paint5_linear_10_26982)"/>
<path d="M504.666 809.382C504.296 809.747 503.764 809.948 503.271 809.948C502.739 809.948 502.204 809.745 501.795 809.341C501.015 808.533 501.015 807.239 501.836 806.469L512.086 796.682C513.275 797.369 514.423 798.059 515.612 798.746C515.57 798.949 515.448 799.109 515.283 799.271L504.666 809.382Z" fill="#F9FBFC"/>
<path d="M502.001 790.657C503.067 791.305 504.215 791.992 505.362 792.679C505.281 793.003 505.117 793.286 504.87 793.528L494.252 803.639C493.884 804.043 493.35 804.246 492.859 804.246C492.286 804.246 491.753 804.004 491.383 803.6C490.564 802.792 490.604 801.537 491.425 800.77L502.001 790.657Z" fill="#F9FBFC"/>
<path d="M485.398 797.572C484.988 797.976 484.454 798.18 483.963 798.18C483.431 798.18 482.897 797.938 482.487 797.531C481.708 796.723 481.708 795.468 482.529 794.701L492.656 785.035C493.722 785.683 494.912 786.409 496.182 787.178C496.14 787.299 496.059 787.381 495.976 787.461L485.398 797.572Z" fill="#F9FBFC"/>
<path d="M548.621 452.348H482.08C482.08 452.348 381.704 436.371 362.17 424.532C354.907 420.127 342.455 406.642 329.598 391.421L374.937 354.172C382.877 366.588 390.094 376.69 392.981 377.804C400.875 380.741 475.674 421.907 484.334 421.907C492.996 421.907 534.32 421.195 548.621 452.348Z" fill="#EFA78B"/>
<path d="M378.007 353.238L329.598 391.423C307.674 365.476 284.711 334.415 284.711 334.415L353.357 293.562C353.357 293.562 370.978 334.878 378.007 353.238Z" fill="url(#paint6_linear_10_26982)"/>
<path d="M336.59 259.467L286.966 240.196C286.966 240.196 227.79 246.982 223.706 387.641C222.917 414.791 223.188 564.867 231.575 568.72C265.012 584.076 351.117 483.423 351.117 483.423C352.825 480.296 350.395 447.849 351.117 444.645C349.042 443.887 347.328 443.086 345.974 442.33C337.177 437.213 320.755 415.717 304.606 392.487L355.673 353.236C357.702 356.395 359.733 359.467 361.672 362.448C363.026 287.415 336.59 259.467 336.59 259.467Z" fill="url(#paint7_linear_10_26982)"/>
<path d="M351.117 444.647C349.042 443.889 347.327 443.088 345.974 442.333C337.177 437.216 320.755 415.72 304.606 392.489L329.67 373.223L304.606 336.563L259.438 307.43V327.501C259.438 327.501 278.778 379.404 301.794 420.104C314.293 442.205 334.977 453.051 351.281 458.358C351.034 451.65 350.833 445.902 351.117 444.647Z" fill="#3030EF"/>
<path d="M496.737 436.775C496.737 436.775 391.849 394.502 384.716 392.968C382.463 392.489 374.751 381.983 365.249 367.807C363.257 364.751 357.686 356.365 355.675 353.236L304.608 392.489C320.758 415.72 337.18 437.216 345.976 442.333C347.33 443.088 349.044 443.889 351.12 444.647C351.143 444.542 351.166 444.444 351.189 444.341C351.166 444.442 351.15 444.535 351.127 444.636C381.612 455.899 491.362 461.092 493.489 461.802C497.429 464.81 506.691 465.009 515.031 462.738C518.886 461.688 522.567 460.127 525.385 458.027C532.719 452.608 543.672 460.257 548.623 463.941C551.842 466.337 559.322 466.253 561.795 463.813C556.157 432.662 496.737 436.775 496.737 436.775Z" fill="url(#paint8_radial_10_26982)"/>
<path d="M347.911 236.843L346.43 239.81L343.237 246.178L342.659 247.342L336.597 259.462L286.969 240.198L307.745 207.674L340.646 231.571L347.911 236.843Z" fill="url(#paint9_radial_10_26982)"/>
<path d="M259.439 327.501L311.172 405.917L370.316 372.413C370.316 372.413 354.211 311.305 338.582 277.683C328.869 256.789 300.923 246.429 273.878 263.046C250.054 277.681 250.769 311.864 259.439 327.501Z" fill="url(#paint10_linear_10_26982)"/>
<path d="M356.996 186.399C355.099 177.888 347.205 170.055 340.093 181.44C338.33 184.263 337.731 187.632 337.379 190.93C336.116 202.789 322.123 208.007 311.665 208.792C310.011 208.918 308.275 208.906 306.633 208.614C306.633 208.614 309.277 189.09 315.14 165.572C321.003 142.054 334.302 118.075 353.491 127.695C353.491 127.695 371.163 119.561 381.912 133.057C381.912 133.057 400.153 126.609 409.598 141.079C409.598 141.079 435.212 145.852 439.997 161.548C446.079 181.494 417.767 186.347 408.32 180.702C398.874 175.056 391.731 164.34 385.216 164.536C378.701 164.73 380.172 174.597 379.194 180.702C378.217 186.808 368.627 180.527 364.555 188.72C360.483 196.914 358.456 201.5 356.013 200.053C353.577 198.608 356.996 186.399 356.996 186.399Z" fill="url(#paint11_linear_10_26982)"/>
<path d="M353.577 188.472C354.303 185.404 352.371 181.065 349.66 180.88C346.194 180.643 344.59 184.831 344.343 188.499C344.114 191.872 345.134 197.716 348.915 196.447C351.809 195.474 348.584 192.037 349.623 190.163C350.763 188.104 353.572 191.765 353.577 188.472Z" fill="#EFA78B"/>
<path d="M346.43 239.81L343.237 246.178C332.802 238.829 333.219 227.691 333.219 227.691C333.219 227.691 336.234 234.034 346.43 239.81Z" fill="#EFA78B"/>
<path d="M158.898 353.382C158.901 353.779 158.914 353.927 158.924 354.069C158.961 354.537 158.984 354.658 159.014 354.918C159.13 355.803 159.361 357.367 159.724 359.757C162.417 377.512 172.051 438.357 181.024 494.831C189.994 551.294 198.293 603.335 198.293 603.338L216.12 600.571C216.117 600.56 215.507 596.723 214.431 589.983C210.671 566.394 201.273 507.386 192.814 454.035C188.585 427.36 184.591 402.098 181.655 383.391C180.189 374.038 178.983 366.321 178.15 360.896C177.734 358.184 177.407 356.043 177.19 354.571C177.081 353.836 177 353.268 176.949 352.905L176.903 352.558L171.57 353.131L176.917 352.688L176.903 352.553L171.57 353.128L176.917 352.686L168.572 353.375H176.947C176.942 352.887 176.922 352.793 176.917 352.686L168.572 353.375H176.947H158.898V353.382Z" fill="#112B46"/>
<path d="M318.328 627.367H340.181V834.288C340.181 836.337 338.496 837.999 336.419 837.999H322.09C320.012 837.999 318.328 836.337 318.328 834.288V627.367Z" fill="#0A2033"/>
<path d="M318.328 786.27H340.181V834.288C340.181 836.337 338.496 837.999 336.419 837.999H322.09C320.012 837.999 318.328 836.337 318.328 834.288V786.27Z" fill="#0A2033"/>
<path d="M269.165 630.323H389.344V633.84C389.344 641.833 382.775 648.311 374.675 648.311H283.836C275.734 648.311 269.168 641.831 269.168 633.84L269.165 630.323Z" fill="#112B46"/>
<path d="M213.232 630.875H445.277C454.733 630.875 462.4 623.313 462.4 613.983V605.771C462.4 596.442 454.735 588.878 445.277 588.878H213.232C203.776 588.878 196.109 596.44 196.109 605.771V613.983C196.109 623.313 203.776 630.875 213.232 630.875Z" fill="url(#paint12_linear_10_26982)"/>
<path d="M215.856 825.382C215.856 832.35 221.583 837.999 228.646 837.999C235.71 837.999 241.436 832.35 241.436 825.382C241.436 818.413 235.71 812.764 228.646 812.764C221.583 812.764 215.856 818.413 215.856 825.382Z" fill="#0A2033"/>
<path d="M429.863 837.999C436.927 837.999 442.653 832.35 442.653 825.382C442.653 818.413 436.927 812.764 429.863 812.764C422.799 812.764 417.073 818.413 417.073 825.382C417.073 832.35 422.799 837.999 429.863 837.999Z" fill="#0A2033"/>
<path d="M307.273 808.103H351.235V770.205H307.273V808.103Z" fill="#112B46"/>
<path d="M215.856 817.021H442.653V812.315C442.653 805.066 436.695 799.188 429.347 799.188H229.164C221.816 799.188 215.858 805.066 215.858 812.315L215.856 817.021Z" fill="url(#paint13_linear_10_26982)"/>
<path d="M153.521 368.053L163.148 438.462C164.52 448.5 173.881 455.539 184.057 454.183C194.232 452.83 201.368 443.595 199.993 433.557L190.366 363.148C188.994 353.11 179.633 346.071 169.458 347.427C159.285 348.78 152.149 358.015 153.521 368.053Z" fill="url(#paint14_linear_10_26982)"/>
<path d="M807.536 490.508H787.988V835.598H807.536V490.508Z" fill="#BC8867"/>
<path d="M513.032 490.508H493.484V835.598H513.032V490.508Z" fill="#BC8867"/>
<path d="M827.131 468.998H478.825V493.099H827.131V468.998Z" fill="#F9FBFC"/>
<path d="M470.769 0H370.062V61.2376H470.769V0Z" fill="#FF8578"/>
<path d="M398.559 10.9912L399.237 12.524L394.058 14.7346L399.237 16.9128L398.559 18.4779L392.347 15.7027V13.7826L398.559 10.9912ZM405.09 7.00574L406.865 7.40912L403.106 21.8502L401.315 21.4307L405.09 7.00574ZM409.633 10.9912L415.845 13.7826V15.7027L409.633 18.4779L408.955 16.9128L414.119 14.7346L408.955 12.524L409.633 10.9912Z" fill="#F9FBFC"/>
<path d="M301.135 72.6566H187.509V147.63H301.135V72.6566Z" fill="#FBD15B"/>
<path d="M225.115 94.1776C219.688 100.877 219.773 110.661 225.3 117.28C231.582 124.799 242.341 126.008 250.068 120.923L261.993 132.689C262.495 133.184 263.312 133.184 263.816 132.689L267.166 129.384C267.668 128.889 267.668 128.083 267.166 127.586L255.239 115.82C260.07 108.676 259.295 98.9069 252.909 92.6073C245.145 84.9429 232.172 85.4656 225.115 94.1776ZM249.05 114.815C243.909 119.887 235.543 119.887 230.4 114.815C225.259 109.744 225.259 101.491 230.4 96.419C235.541 91.3474 243.907 91.3474 249.048 96.419C254.191 101.488 254.194 109.742 249.05 114.815Z" fill="#F9FBFC"/>
<path d="M823.558 55.0112H736.345V116.304H823.558V55.0112Z" fill="#878CF0"/>
<path d="M765.545 60.7236C764.942 60.7236 764.519 60.8199 764.275 61.0123C764.044 61.192 763.928 61.5064 763.928 61.9555V65.9976C763.928 66.7419 763.787 67.2808 763.505 67.6144C763.223 67.9481 762.78 68.1983 762.177 68.3651C762.78 68.5191 763.223 68.7629 763.505 69.0965C763.787 69.4302 763.928 69.9627 763.928 70.6941V74.7362C763.928 75.1854 764.05 75.4997 764.294 75.6794C764.538 75.8719 764.955 75.9681 765.545 75.9681V77.7389C764.544 77.7389 763.755 77.6299 763.178 77.4117C762.613 77.1936 762.209 76.8664 761.965 76.4301C761.734 75.9938 761.619 75.4228 761.619 74.717V70.8866C761.619 70.322 761.522 69.9306 761.33 69.7125C761.15 69.4815 760.817 69.366 760.329 69.366V67.345C760.817 67.345 761.15 67.2295 761.33 66.9985C761.522 66.7675 761.619 66.3697 761.619 65.8051V61.9747C761.619 61.2561 761.734 60.6787 761.965 60.2424C762.209 59.8061 762.613 59.4853 763.178 59.28C763.742 59.0619 764.532 58.9528 765.545 58.9528V60.7236ZM771.709 58.9528C772.723 58.9528 773.512 59.0619 774.077 59.28C774.641 59.4853 775.039 59.8061 775.27 60.2424C775.514 60.6787 775.636 61.2561 775.636 61.9747V65.8051C775.636 66.3697 775.726 66.7675 775.905 66.9985C776.098 67.2295 776.444 67.345 776.945 67.345V69.366C776.444 69.366 776.098 69.4815 775.905 69.7125C775.726 69.9306 775.636 70.322 775.636 70.8866V74.717C775.636 75.4228 775.514 75.9938 775.27 76.4301C775.039 76.8664 774.635 77.1936 774.058 77.4117C773.493 77.6299 772.71 77.7389 771.709 77.7389V75.9681C772.3 75.9681 772.717 75.8719 772.96 75.6794C773.204 75.4997 773.326 75.1854 773.326 74.7362V70.6941C773.326 69.9627 773.467 69.4302 773.75 69.0965C774.032 68.7629 774.475 68.5191 775.078 68.3651C774.475 68.1983 774.032 67.9481 773.75 67.6144C773.467 67.2808 773.326 66.7419 773.326 65.9976V61.9555C773.326 61.5064 773.204 61.192 772.96 61.0123C772.729 60.8199 772.312 60.7236 771.709 60.7236V58.9528Z" fill="#F1F2F2"/>
</g>
<defs>
<linearGradient id="paint0_linear_10_26982" x1="176.294" y1="630.865" x2="176.294" y2="736.615" gradientUnits="userSpaceOnUse">
<stop stop-color="#7978E0"/>
<stop offset="1" stop-color="#563FDA"/>
</linearGradient>
<linearGradient id="paint1_linear_10_26982" x1="54.9656" y1="698.069" x2="54.9656" y2="750.748" gradientUnits="userSpaceOnUse">
<stop stop-color="#7978E0"/>
<stop offset="1" stop-color="#563FDA"/>
</linearGradient>
<linearGradient id="paint2_linear_10_26982" x1="88.0225" y1="609.665" x2="88.0225" y2="729.287" gradientUnits="userSpaceOnUse">
<stop stop-color="#7978E0"/>
<stop offset="1" stop-color="#563FDA"/>
</linearGradient>
<radialGradient id="paint3_radial_10_26982" cx="0" cy="0" r="1" gradientUnits="userSpaceOnUse" gradientTransform="translate(353.576 206.325) scale(78.5685 77.5079)">
<stop stop-color="#FFC8AF"/>
<stop offset="1" stop-color="#FFBB9C"/>
</radialGradient>
<linearGradient id="paint4_linear_10_26982" x1="617.021" y1="771.214" x2="649.348" y2="827.971" gradientUnits="userSpaceOnUse">
<stop stop-color="#7978E0"/>
<stop offset="1" stop-color="#563FDA"/>
</linearGradient>
<linearGradient id="paint5_linear_10_26982" x1="464.746" y1="773.801" x2="504.355" y2="843.345" gradientUnits="userSpaceOnUse">
<stop stop-color="#7978E0"/>
<stop offset="1" stop-color="#563FDA"/>
</linearGradient>
<linearGradient id="paint6_linear_10_26982" x1="284.711" y1="342.49" x2="378.006" y2="342.49" gradientUnits="userSpaceOnUse">
<stop stop-color="#606BF1"/>
<stop offset="1" stop-color="#433AFF"/>
</linearGradient>
<linearGradient id="paint7_linear_10_26982" x1="207.789" y1="283.18" x2="341.498" y2="517.939" gradientUnits="userSpaceOnUse">
<stop stop-color="#606BF1"/>
<stop offset="1" stop-color="#433AFF"/>
</linearGradient>
<radialGradient id="paint8_radial_10_26982" cx="0" cy="0" r="1" gradientUnits="userSpaceOnUse" gradientTransform="translate(433.199 409.465) scale(99.4609 98.1183)">
<stop stop-color="#FFC8AF"/>
<stop offset="1" stop-color="#FFBB9C"/>
</radialGradient>
<radialGradient id="paint9_radial_10_26982" cx="0" cy="0" r="1" gradientUnits="userSpaceOnUse" gradientTransform="translate(353.585 206.328) scale(78.5438 77.4835)">
<stop stop-color="#FFC8AF"/>
<stop offset="1" stop-color="#FFBB9C"/>
</radialGradient>
<linearGradient id="paint10_linear_10_26982" x1="312.112" y1="254.804" x2="312.112" y2="405.917" gradientUnits="userSpaceOnUse">
<stop stop-color="#606BF1"/>
<stop offset="1" stop-color="#433AFF"/>
</linearGradient>
<linearGradient id="paint11_linear_10_26982" x1="373.742" y1="125.268" x2="373.742" y2="208.869" gradientUnits="userSpaceOnUse">
<stop stop-color="#56549E"/>
<stop offset="0.9898" stop-color="#2E2C71"/>
</linearGradient>
<linearGradient id="paint12_linear_10_26982" x1="289.884" y1="542.607" x2="367.03" y2="678.057" gradientUnits="userSpaceOnUse">
<stop stop-color="#EC827D"/>
<stop offset="1" stop-color="#FF5A7D"/>
</linearGradient>
<linearGradient id="paint13_linear_10_26982" x1="297.317" y1="758.335" x2="358.153" y2="865.148" gradientUnits="userSpaceOnUse">
<stop stop-color="#EC827D"/>
<stop offset="1" stop-color="#FF5A7D"/>
</linearGradient>
<linearGradient id="paint14_linear_10_26982" x1="150.804" y1="356.46" x2="201.659" y2="445.749" gradientUnits="userSpaceOnUse">
<stop stop-color="#EC827D"/>
<stop offset="1" stop-color="#FF5A7D"/>
</linearGradient>
</defs>
</svg>
